<svg width="19" height="19" xmlns="http://www.w3.org/2000/svg" xmlns:xlink="http://www.w3.org/1999/xlink"><defs><path id="a" d="M0 0h14v15.48H0z"/></defs><g fill="none" fill-rule="evenodd"><path d="M.5.5h18v18H.5z" fill="#FFF" stroke="#FFF" stroke-linejoin="round"/><path d="M11.098 8.21a1.534 1.534 0 1 0 3.065-.005 1.534 1.534 0 0 0-3.065.006M7.117 6.676c-.847 0-1.531.687-1.531 1.535a1.531 1.531 0 1 0 3.062 0c0-.848-.687-1.535-1.53-1.535" fill="#ED1C24" fill-rule="nonzero"/><g transform="translate(3 2)"><mask id="b" fill="#fff"><use xlink:href="#a"/></mask><path d="M13.258 6.246c0-2.262-1.485-4.21-3.621-5.137L8.695.781a6.963 6.963 0 0 0-1.82-.238 7.09 7.09 0 0 0-1.883.25l-.87.312C1.976 2.027.487 3.98.487 6.246c0 1.625.762 3.145 2.098 4.227-.227.433-.348 1.406-.348 1.406s1.375 3.062 3.067 3.062h3.14c1.688 0 3.063-3.062 3.063-3.062s-.121-.977-.348-1.406c1.336-1.082 2.098-2.602 2.098-4.227m-7.36 8.176.977-.715.902.715H5.898Zm4.278-3.797.414 1.254s-.383 1.398-.961 1.781v-2.594c0-.254-.457-.457-.457-.457s-.461.204-.461.457v2.926c-.09.016-.176.028-.266.028l-1.136-.868v-2.261c0-.254-.461-.457-.461-.457s-.457.203-.457.457v2.261l-1.086.868a1.5 1.5 0 0 1-.27-.028v-2.926c0-.254-.46-.457-.46-.457s-.458.204-.458.457v2.594c-.578-.387-.957-1.781-.957-1.781l.41-1.254.078-.344-.187-.3S1.406 7.702 1.406 6.245c0-1.871 1.239-3.492 3.032-4.277l.87-.305a6.04 6.04 0 0 1 2.895-.055l.887.266c1.914.746 3.25 2.426 3.25 4.371 0 1.457-2.055 3.734-2.055 3.734l-.187.301.078.344Z" fill="#ED1C24" fill-rule="nonzero" mask="url(#b)"/></g><path fill="#ED1C24" fill-rule="nonzero" d="m9.688 9.04-1.22 2.245.891.067.512-.25.508.312h.992L9.97 9.04z"/></g></svg>