<svg width="19" height="19" xmlns="http://www.w3.org/2000/svg" xmlns:xlink="http://www.w3.org/1999/xlink"><defs><filter id="a"><feColorMatrix in="SourceGraphic" values="0 0 0 0 0.000000 0 0 0 0 0.000000 0 0 0 0 0.000000 0 0 0 1.000000 0"/></filter><path id="b" d="M0 0h15v15.48H0z"/></defs><g fill="none" fill-rule="evenodd"><path d="M.5.5h18v18H.5z" fill="#FFF" stroke="#FFF" stroke-linejoin="round"/><g transform="translate(2 2)" filter="url(#a)"><g><mask id="c" fill="#fff"><use xlink:href="#b"/></mask><path d="M7.496.54a7.202 7.202 0 0 0 0 14.401 7.201 7.201 0 0 0 0-14.402m-4.45 10.543-.855-1.656-.847-1.684.847-1.691.856-1.653.008 3.344-.008 3.34Zm8.2-4.68v.805c-.023.375-.226.738-.605 1.09-.383.355-.782.55-1.196.59H5.91V7.633h2.692c.148 0 .32-.004.52-.016.198-.012.347-.062.444-.144a.668.668 0 0 0 .196-.317v-.754H5.3v3.723H3.805V5.156h7.441v1.246Zm.7 4.68-.008-3.34.007-3.344.856 1.653.847 1.691-.847 1.688-.856 1.652Z" fill="#FFF" fill-rule="nonzero" mask="url(#c)"/></g></g></g></svg>