<svg width="19" height="19" xmlns="http://www.w3.org/2000/svg"><defs><filter id="a"><feColorMatrix in="SourceGraphic" values="0 0 0 0 0.000000 0 0 0 0 0.000000 0 0 0 0 0.000000 0 0 0 1.000000 0"/></filter></defs><g fill="none" fill-rule="evenodd"><path d="M.5.5h18v18H.5z" fill="#FFF" stroke="#FFF" stroke-linejoin="round"/><g transform="translate(2 2)" filter="url(#a)"><path d="M7.203 0A7.202 7.202 0 0 0 0 7.2a7.202 7.202 0 0 0 14.402 0c0-3.977-3.226-7.2-7.199-7.2m-1.86 2.777 1.688-.851 1.692.851 1.652.856-3.344.004-3.34-.004 1.653-.856Zm-2.59 7.762-.855-1.652-.851-1.688.851-1.687.856-1.653.008 3.34-.008 3.34Zm5.966 1.086-1.688.848-1.687-.848-1.653-.86 3.34-.003 3.344.004-1.656.859Zm2.23-5.762v.801c-.02.375-.222.742-.605 1.094-.38.351-.778.547-1.192.586H5.617V7.09h2.688c.148 0 .324-.004.52-.016.202-.011.347-.058.445-.144a.613.613 0 0 0 .195-.317v-.75H5.004v3.719H3.512V4.617h7.437v1.246Zm.7 4.676L11.64 7.2l.007-3.34.856 1.653.851 1.687-.851 1.688-.856 1.652Z" fill="#FFF" fill-rule="nonzero"/></g></g></svg>