<svg width="19" height="19" xmlns="http://www.w3.org/2000/svg"><defs><filter id="a"><feColorMatrix in="SourceGraphic" values="0 0 0 0 0.000000 0 0 0 0 0.000000 0 0 0 0 0.000000 0 0 0 1.000000 0"/></filter></defs><g fill="none" fill-rule="evenodd"><path d="M.5.5h18v18H.5z" fill="#FFF" stroke="#FFF" stroke-linejoin="round"/><g transform="translate(2 3)" filter="url(#a)"><g fill="#FFF" fill-rule="nonzero"><path d="M13.96 10.797c.04.004.071.008.11.015.04-.105.086-.21.121-.316.664-2.055-.285-4.316-2.238-5.262-.313-.148-.39-.3-.371-.636.117-2.23-1.317-4.114-3.465-4.578-.102-.024-.21-.016-.312-.02-.012.027-.024.05-.032.078 1.778.574 2.742 1.746 2.438 3.629-.25 1.535-1.324 2.328-2.84 2.543-.059.25-.047.422.242.54.309.124.488.41.453.745-.035.305.07.457.352.524.926-1.204 2.14-1.73 3.586-1.2 1.812.664 2.351 2.094 1.957 3.938M7.047 6.242C5.687 6.07 4.667 5.426 4.3 4.13 3.719 2.059 4.676.75 6.617.019a.825.825 0 0 0-.355.008C4.117.507 2.703 2.375 2.82 4.59c.016.328-.043.492-.363.644C.488 6.176-.461 8.457.219 10.52c.035.101.09.195.132.293l.086-.012C.051 8.93.597 7.492 2.457 6.84c1.426-.5 2.617.035 3.566 1.273.114-.133.309-.258.301-.37-.043-.567.215-.903.723-1.079v-.422Zm-.91 2.098c.539 1.23.496 2.414-.399 3.375-1.504 1.613-3.137 1.437-4.773.117a3.81 3.81 0 0 0 1.902 1.457c1.574.563 3.02.274 4.336-.7 1.605 1.212 3.379 1.2 4.762.516.726-.359 1.41-.98 1.433-1.375-.582.614-1.234.997-2.035 1.079-.816.086-1.574-.09-2.21-.61-1.278-1.047-1.509-2.363-.884-3.914-.172-.035-.375-.14-.457-.078-.465.34-.882.273-1.308-.078-.117.066-.23.129-.367.21M3.32 6.938c-.37 1.688.766 3.774 2.477 4.27.113-.297.226-.598.343-.898-1.37-.664-1.964-1.723-1.859-3.215-.324-.055-.637-.102-.96-.157m5.304 4.297c1.742-.66 2.883-2.668 2.45-4.293-.313.051-.63.098-.954.149.105 1.512-.5 2.566-1.863 3.223.125.304.242.605.367.921M5.34 5.258c1.254-.848 2.468-.848 3.722 0 .203-.258.407-.52.614-.778-1.489-1.25-3.735-1.097-4.942.016.196.246.39.496.606.762"/><path d="M13.96 10.797c.395-1.844-.144-3.274-1.956-3.938-1.446-.53-2.66-.004-3.586 1.2-.281-.067-.387-.22-.352-.524a.705.705 0 0 0-.453-.746c-.289-.117-.3-.289-.242-.539 1.516-.215 2.59-1.008 2.84-2.543.304-1.883-.66-3.055-2.438-3.629.008-.027.02-.05.032-.078.101.004.21-.004.312.02 2.148.464 3.582 2.347 3.465 4.578-.02.336.058.488.371.636 1.953.946 2.902 3.207 2.238 5.262-.035.106-.082.211-.12.316a1.053 1.053 0 0 0-.11-.015M7.043 6.242v.422c-.504.176-.762.512-.719 1.078.008.113-.187.238-.3.371-.95-1.238-2.141-1.773-3.571-1.273C.597 7.492.051 8.93.437 10.8c-.027.005-.058.009-.086.012-.043-.097-.097-.19-.129-.292-.683-2.063.266-4.344 2.231-5.286.324-.152.383-.316.367-.644C2.703 2.375 4.117.508 6.258.027A.846.846 0 0 1 6.617.02C4.676.75 3.719 2.059 4.301 4.129c.367 1.297 1.386 1.941 2.742 2.113M6.137 8.34c.14-.082.25-.145.367-.211.426.351.843.418 1.308.078.082-.062.285.043.461.078-.625 1.55-.398 2.867.883 3.914.633.52 1.39.696 2.207.61.8-.082 1.453-.465 2.035-1.079-.023.395-.707 1.016-1.433 1.375-1.383.684-3.157.696-4.762-.515-1.316.973-2.762 1.262-4.336.7a3.826 3.826 0 0 1-1.902-1.458c1.636 1.32 3.273 1.496 4.773-.117.895-.961.938-2.145.399-3.375"/><path d="M3.32 6.938c.328.054.637.101.961.156-.105 1.492.492 2.554 1.86 3.215l-.344.898c-1.715-.496-2.848-2.582-2.477-4.27M8.625 11.234c-.125-.316-.242-.617-.367-.921 1.363-.657 1.968-1.711 1.863-3.223.324-.05.64-.098.953-.149.434 1.625-.707 3.633-2.45 4.293M5.34 5.258l-.606-.762C5.941 3.383 8.187 3.23 9.676 4.48c-.207.258-.41.52-.614.778-1.257-.848-2.468-.848-3.722 0"/></g></g></g></svg>