<svg width="19" height="19" xmlns="http://www.w3.org/2000/svg"><g fill="none" fill-rule="evenodd"><path d="M.5.5h18v18H.5z" fill="#FFF" stroke="#FFF" stroke-linejoin="round"/><g fill="#ED2127" fill-rule="nonzero"><path d="m14.707 4.645-.207-.223-.004.008c-.043-.043-.086-.086-.129-.125-.097-.094-.41-.367-.418-.375a6.724 6.724 0 0 0-2.722-1.309c0 .133-.02.266-.063.399l-.363 1.03a5.178 5.178 0 0 1 2.011.88l-.976 1.113c.219.062.426.18.586.352.215.234.328.535.336.843l1.125-1.273a5.24 5.24 0 0 1 1.125 3.234 5.261 5.261 0 0 1-4.332 5.172l-.473 1.555c3.508-.239 6.29-3.16 6.29-6.727a6.703 6.703 0 0 0-1.786-4.554M8.027 14.16a5.079 5.079 0 0 1-.972-.445l1.691-1.918.836-2.754-.492.113-3.192 3.621A5.2 5.2 0 0 1 4.484 9.2c0-2.281 1.465-4.222 3.5-4.949l.59-1.688C5.41 3.118 3 5.883 3 9.2c0 1.73.652 3.36 1.844 4.617l-.008.008 1.21 1.008a6.726 6.726 0 0 0 1.563.762c.012-.055.016-.11.036-.16l.382-1.274Z"/><path d="M12.04 7.453a.611.611 0 0 0-.134-.578.598.598 0 0 0-.566-.172l-.11.024-2.296.527 1.156-3.3.406-1.165a.564.564 0 0 0 .02-.289.583.583 0 0 0-.579-.5.595.595 0 0 0-.558.395l-.027.078-.543 1.554L7.46 7.875a.6.6 0 0 0 .117.59.585.585 0 0 0 .574.183l1.735-.398.722-.164-.738 2.434-1.164 3.824-.39 1.293c-.016.05-.012.101-.016.152a.584.584 0 0 0 .582.613.597.597 0 0 0 .566-.422l.012-.043.453-1.484 1.844-6.078.281-.922Z"/></g></g></svg>