<svg width="19" height="19" xmlns="http://www.w3.org/2000/svg"><g fill="none" fill-rule="evenodd"><path d="M.5.5h18v18H.5z" fill="#FFF" stroke="#FFF" stroke-linejoin="round"/><path d="m14.496 4.336-.223-.23-.003.003-.137-.136a20.566 20.566 0 0 0-.45-.395A7.108 7.108 0 0 0 9.204 2C5.23 2 2 5.23 2 9.2c0 1.843.7 3.581 1.969 4.929l-.008.008 1.293 1.074a7.116 7.116 0 0 0 3.95 1.191c3.968 0 7.198-3.234 7.198-7.203a7.169 7.169 0 0 0-1.906-4.863M9.203 14.812a5.578 5.578 0 0 1-2.875-.792l7.285-8.274A5.588 5.588 0 0 1 14.816 9.2a5.619 5.619 0 0 1-5.613 5.614m0-11.227c1.188 0 2.313.367 3.27 1.059l-7.38 8.375A5.575 5.575 0 0 1 3.587 9.2a5.622 5.622 0 0 1 5.617-5.614" fill="#ED1C24" fill-rule="nonzero"/></g></svg>