<svg width="86" height="97" xmlns="http://www.w3.org/2000/svg"><path d="M82 26.25v44.5L67.374 34.594 82 26.25Zm-14.626 8.344L82 70.75l-39 5.563 24.374-41.72ZM82 26.25l-14.626 8.344L43 4l39 22.25Zm0 44.5L43 93V76.312l39-5.562ZM43 4l24.374 30.594H18.626L43 4Zm24.374 30.594L43 76.312 18.626 34.594h48.748ZM43 76.312V93L4 70.75l39 5.563ZM43 4 18.626 34.594 4 26.25 43 4ZM18.626 34.594 43 76.312 4 70.75l14.626-36.156Zm0 0L4 70.75v-44.5l14.626 8.344Z" fill="#262626" stroke="#979797" stroke-width="6" fill-rule="evenodd" stroke-linejoin="round"/></svg>