<svg width="19" height="19" xmlns="http://www.w3.org/2000/svg" xmlns:xlink="http://www.w3.org/1999/xlink"><defs><path id="a" d="M0 0h15v14.844H0z"/></defs><g fill="none" fill-rule="evenodd"><path d="M.5.5h18v18H.5z" fill="#FFF" stroke="#FFF" stroke-linejoin="round"/><g transform="translate(2 2)"><mask id="b" fill="#fff"><use xlink:href="#a"/></mask><path d="M7.512 14.145a.42.42 0 0 1-.328-.157l-1.672-2.11c-.782-.983-1.563-1.968-2.344-2.96a22.458 22.458 0 0 0-.754-.883C1.422 6.918.297 5.645.297 4.085A4.024 4.024 0 0 1 4.32.067c1.266 0 2.438.594 3.192 1.594.75-1 1.922-1.594 3.187-1.594 1.602 0 3.098.985 3.719 2.45.414.98.367 2.035-.148 3.136-.227.48-.54.97-.938 1.461l-.45.555c-.808.992-1.616 1.984-2.405 2.992-.543.695-1.09 1.383-1.641 2.067l-1 1.261a.419.419 0 0 1-.324.157M4.32.898A3.192 3.192 0 0 0 1.13 4.086c0 1.246.973 2.34 1.91 3.402.277.313.547.617.785.918.778.989 1.559 1.969 2.34 2.957l1.348 1.696.676-.848c.546-.688 1.093-1.371 1.632-2.063a162.754 162.754 0 0 1 2.418-3.007l.45-.555a6.35 6.35 0 0 0 .828-1.285c.418-.89.46-1.696.136-2.461A3.237 3.237 0 0 0 10.7.898a3.18 3.18 0 0 0-2.82 1.73.413.413 0 0 1-.738 0A3.18 3.18 0 0 0 4.32.899" fill="#ED2124" fill-rule="nonzero" mask="url(#b)"/></g><path fill="#ED2124" fill-rule="nonzero" d="M7.55 6.48v1.528h1.462v.656H7.55v1.54h-.684v-1.54H5.402v-.656h1.465V6.48zM9.406 10.484l1.5-5.074h.707l-1.5 5.074zM11.824 8.719h1.832v-.707h-1.832z"/></g></svg>