<svg width="19" height="19" xmlns="http://www.w3.org/2000/svg" xmlns:xlink="http://www.w3.org/1999/xlink"><defs><path id="a" d="M0 0h16v15.48H0z"/></defs><g fill="none" fill-rule="evenodd"><path d="M.5.5h18v18H.5z" fill="#FFF" stroke="#FFF" stroke-linejoin="round"/><path d="M9.895 15.531c-3.192 0-5.793-2.597-5.793-5.789A5.8 5.8 0 0 1 9.895 3.95a5.818 5.818 0 0 1 5.707 4.785h-4.118v-.933a.63.63 0 0 0-.625-.625H9.258a.627.627 0 0 0-.625.625v3.883c0 .343.281.62.625.62h1.601c.34 0 .625-.277.625-.62v-.934h4.118a5.814 5.814 0 0 1-5.707 4.781" fill="#000" fill-rule="nonzero"/><path fill="#000" fill-rule="nonzero" d="M17.05 9.203h-6.187V7.695h-1.64v4.094h1.64v-1.512h6.188z"/><g transform="translate(2 2)"><mask id="b" fill="#fff"><use xlink:href="#a"/></mask><path d="M14.008 8.754c-.485 2.934-3.043 5.184-6.113 5.184-3.415 0-6.192-2.782-6.192-6.196a6.2 6.2 0 0 1 6.192-6.195c3.074 0 5.628 2.25 6.113 5.187h1.015A7.196 7.196 0 0 0 7.895.543a7.199 7.199 0 0 0-7.2 7.2c0 3.976 3.223 7.198 7.2 7.198a7.199 7.199 0 0 0 7.128-6.187h-1.015Z" fill="#000" fill-rule="nonzero" mask="url(#b)"/></g></g></svg>