<svg width="19" height="19" xmlns="http://www.w3.org/2000/svg"><g fill="none" fill-rule="evenodd"><path d="M.5.5h18v18H.5z" fill="#FFF" stroke="#FFF" stroke-linejoin="round"/><path d="M6.903 8.784c-.105.41-.168.949-.195 1.628a5.291 5.291 0 0 0-.434-.082 3.044 3.044 0 0 0-.43-.03 2.075 2.075 0 0 0-.48.042c-.144.031-.316.09-.508.176-.187.086-.378.2-.574.34L2.81 11.932a.395.395 0 0 1-.172.078c-.059.008-.098-.004-.121-.039l-.496-.684c-.028-.03-.028-.074 0-.12a.333.333 0 0 1 .125-.145l1.476-1.074C4.716 9.147 5.81 8.76 6.903 8.784m9.477-2.555c.027.035.027.074.004.121l-1.278 2.672a.344.344 0 0 1-.128.144.422.422 0 0 1-.172.079c-.059.003-.098-.004-.121-.036l-.497-.687c-.14.105-.328.242-.558.41-.23.172-.41.3-.531.39-.121.098-.282.208-.485.348a9.701 9.701 0 0 1-.926.59c-.18.11-.332.188-.464.242-.125.047-.282.106-.453.172-.176.07-.34.113-.493.14a7.949 7.949 0 0 1-.5.079 5.19 5.19 0 0 1-.55.02c.097-.41.16-.95.187-1.626.176.036.316.063.434.083.109.015.254.027.43.035.175.004.335-.016.48-.047a3.167 3.167 0 0 0 1.082-.516l1.683-1.226-.5-.684c-.023-.035-.023-.078 0-.125a.436.436 0 0 1 .13-.145.512.512 0 0 1 .183-.078l2.926-.394c.054-.008.093.008.117.039M14.056 3.04c.027.036.027.075.004.125l-1.278 2.672a.374.374 0 0 1-.125.14.38.38 0 0 1-.176.075c-.058.008-.097-.004-.12-.035l-.497-.684-1.683 1.227c-.211.156-.391.312-.535.473-.145.16-.258.324-.336.492-.079.164-.141.32-.176.46-.04.141-.07.305-.098.493-.031.25-.055.578-.07.984-.012.246-.024.457-.035.633-.012.168-.04.383-.082.633a4.79 4.79 0 0 1-.164.66c-.063.195-.157.41-.274.648a3.6 3.6 0 0 1-.414.676c-.156.211-.355.43-.59.66a6.99 6.99 0 0 1-.8.672L5.133 15.12a.382.382 0 0 1-.176.078c-.055.007-.094-.004-.117-.036l-.5-.683c-.024-.035-.024-.078 0-.129a.469.469 0 0 1 .129-.14l1.476-1.075c.207-.152.387-.308.532-.469.144-.16.257-.324.335-.492.083-.164.141-.32.176-.46.04-.145.07-.305.094-.493.035-.25.059-.578.074-.984.016-.25.024-.461.04-.633.007-.172.034-.383.077-.633s.102-.469.164-.66c.063-.191.153-.41.274-.652a4.1 4.1 0 0 1 .41-.676A7.053 7.053 0 0 1 9.517 5.65L11.2 4.424l-.496-.68c-.027-.035-.027-.078-.004-.124a.442.442 0 0 1 .313-.223l2.93-.395c.054-.007.09.004.113.04" fill="#ED1C24" fill-rule="nonzero"/></g></svg>